<?xml version="1.0" encoding="UTF-8" standalone="no"?>
<!-- Created with Inkscape (http://www.inkscape.org/) -->

<svg
   xmlns:dc="http://purl.org/dc/elements/1.1/"
   xmlns:cc="http://creativecommons.org/ns#"
   xmlns:rdf="http://www.w3.org/1999/02/22-rdf-syntax-ns#"
   xmlns:svg="http://www.w3.org/2000/svg"
   xmlns="http://www.w3.org/2000/svg"
   xmlns:sodipodi="http://sodipodi.sourceforge.net/DTD/sodipodi-0.dtd"
   xmlns:inkscape="http://www.inkscape.org/namespaces/inkscape"
   width="128"
   height="128"
   viewBox="0 0 128 128"
   id="svg4812"
   version="1.1"
   inkscape:version="0.91 r13725"
   sodipodi:docname="querentcode.svg"
   inkscape:export-filename="/home/brekmister/querentcode.png"
   inkscape:export-xdpi="360"
   inkscape:export-ydpi="360">
  <defs
     id="defs4814" />
  <sodipodi:namedview
     id="base"
     pagecolor="#ffffff"
     bordercolor="#666666"
     borderopacity="1.0"
     inkscape:pageopacity="0.0"
     inkscape:pageshadow="2"
     inkscape:zoom="2.8"
     inkscape:cx="23.998436"
     inkscape:cy="70.864631"
     inkscape:document-units="px"
     inkscape:current-layer="layer1"
     showgrid="true"
     fit-margin-top="0"
     fit-margin-left="0"
     fit-margin-right="0"
     fit-margin-bottom="0"
     units="px"
     showguides="false"
     inkscape:window-width="1366"
     inkscape:window-height="705"
     inkscape:window-x="0"
     inkscape:window-y="30"
     inkscape:window-maximized="1">
    <inkscape:grid
       type="xygrid"
       id="grid5390"
       originx="-1.4591678e-09"
       originy="-14" />
  </sodipodi:namedview>
  <metadata
     id="metadata4817">
    <rdf:RDF>
      <cc:Work
         rdf:about="">
        <dc:format>image/svg+xml</dc:format>
        <dc:type
           rdf:resource="http://purl.org/dc/dcmitype/StillImage" />
        <dc:title></dc:title>
      </cc:Work>
    </rdf:RDF>
  </metadata>
  <g
     inkscape:label="Layer 1"
     inkscape:groupmode="layer"
     id="layer1"
     transform="translate(-413.05747,-239.5324)">
    <g
       id="g5392"
       transform="matrix(1.0006095,0,0,1,0.46297049,-14.428589)">
      <g
         id="layer4"
         transform="matrix(3.5433071,0,0,3.5433068,-258.64273,-122.92342)">
        <path
           style="fill:#008000;stroke:none;stroke-width:1.28366244;stroke-linecap:square;stroke-linejoin:miter;stroke-miterlimit:4;stroke-dasharray:none;stroke-opacity:1;paint-order:markers fill stroke"
           d="m 220.52313,124.42744 a 13.204301,14.111068 0 0 1 -13.2043,14.11106 13.204301,14.111068 0 0 1 -13.2043,-14.11106 13.204301,14.111068 0 0 1 13.2043,-14.11107 13.204301,14.111068 0 0 1 13.2043,14.11107 z"
           id="path4607"
           inkscape:connector-curvature="0" />
      </g>
      <path
         style="fill:#ffffff;stroke:none;stroke-width:4.24399996;stroke-linecap:square;stroke-linejoin:miter;stroke-miterlimit:4;stroke-dasharray:none;stroke-opacity:1;paint-order:markers fill stroke"
         d="m 498.08374,323.51075 -38.783,-19.48665 36.8973,-22.6353 z"
         id="path4642"
         inkscape:connector-curvature="0" />
      <path
         style="fill:#008000;stroke:#ffffff;stroke-width:3.7087183;stroke-linecap:square;stroke-linejoin:miter;stroke-miterlimit:4;stroke-dasharray:none;stroke-opacity:1;paint-order:markers fill stroke"
         d="m 456.04524,314.53787 35.8869,16.97492 -33.7425,20.49131 z"
         id="path4642-7"
         inkscape:connector-curvature="0" />
      <path
         inkscape:connector-curvature="0"
         d="m 431.15024,281.95868 q -5.4705,9.18704 -8.183,18.17548 -2.7124,8.98843 -2.8321,18.21769 -0.1198,9.22927 2.3583,18.29981 2.5186,9.0306 7.7113,18.18222 l -6.3896,-0.003 q -5.8685,-9.39162 -8.746,-18.46235 -2.8375,-9.0707 -2.7214,-18.02028 0.1156,-8.90964 3.1879,-17.93787 3.0724,-9.02825 9.225,-18.45471 z"
         id="path4796"
         style="font-style:normal;font-weight:normal;font-size:40px;line-height:25px;font-family:sans-serif;letter-spacing:0px;word-spacing:0px;fill:#000000;fill-opacity:1;stroke:none" />
      <path
         inkscape:connector-curvature="0"
         d="m 522.40264,281.99742 6.3896,0.003 q 5.868,9.43156 8.7061,18.46232 2.878,9.03076 2.7624,17.9404 -0.1161,8.94958 -3.229,18.01775 -3.0728,9.0682 -9.185,18.45473 l -6.3896,-0.003 q 5.4301,-9.14711 8.143,-18.17549 2.7534,-9.06832 2.8732,-18.29759 0.1197,-9.22926 -2.3994,-18.21991 -2.4791,-8.99064 -7.6713,-18.18221 z"
         id="path4798"
         style="font-style:normal;font-weight:normal;font-size:40px;line-height:25px;font-family:sans-serif;letter-spacing:0px;word-spacing:0px;fill:#000000;fill-opacity:1;stroke:none" />
    </g>
  </g>
</svg>
