<?xml version="1.0" encoding="UTF-8" standalone="no"?>
<svg
   xmlns:osb="http://www.openswatchbook.org/uri/2009/osb"
   xmlns:dc="http://purl.org/dc/elements/1.1/"
   xmlns:cc="http://creativecommons.org/ns#"
   xmlns:rdf="http://www.w3.org/1999/02/22-rdf-syntax-ns#"
   xmlns:svg="http://www.w3.org/2000/svg"
   xmlns="http://www.w3.org/2000/svg"
   id="svg8"
   version="1.1"
   viewBox="0 0 226.50696 48.222141"
   height="48.222141mm"
   width="226.50696mm">
  <defs
     id="defs2">
    <linearGradient
       osb:paint="solid"
       id="linearGradient4661">
      <stop
         id="stop4659"
         offset="0"
         style="stop-color:#000000;stop-opacity:1;" />
    </linearGradient>
    <meshgradient
       gradientTransform="translate(-136.49124,45.89826)"
       y="-201.20561"
       x="-21.56596"
       gradientUnits="userSpaceOnUse"
       id="meshgradient5982">
      <meshrow
         id="meshrow5984">
        <meshpatch
           id="meshpatch5986">
          <stop
             id="stop5988"
             style="stop-color:#000000;stop-opacity:1"
             path="c 25.2276,-25.9657  66.1297,-25.9657  91.3574,0" />
          <stop
             id="stop5990"
             style="stop-color:#ffffff;stop-opacity:1"
             path="c 25.2276,25.9657  25.2276,68.0644  0,94.0301" />
          <stop
             id="stop5992"
             style="stop-color:#000000;stop-opacity:1"
             path="c -25.2276,25.9657  -66.1297,25.9657  -91.3574,0" />
          <stop
             id="stop5994"
             style="stop-color:#ffffff;stop-opacity:1"
             path="c -25.2276,-25.9657  -25.2276,-68.0644  -1.42109e-14,-94.0301" />
        </meshpatch>
      </meshrow>
    </meshgradient>
  </defs>
  <metadata
     id="metadata5">
    <rdf:RDF>
      <cc:Work
         rdf:about="">
        <dc:format>image/svg+xml</dc:format>
        <dc:type
           rdf:resource="http://purl.org/dc/dcmitype/StillImage" />
        <dc:title></dc:title>
      </cc:Work>
    </rdf:RDF>
  </metadata>
  <g
     transform="translate(-8.2314953,-101.19908)"
     id="layer4">
    <path
       id="path4607"
       d="m 220.52313,124.42744 a 13.204301,14.111068 0 0 1 -13.2043,14.11106 13.204301,14.111068 0 0 1 -13.2043,-14.11106 13.204301,14.111068 0 0 1 13.2043,-14.11107 13.204301,14.111068 0 0 1 13.2043,14.11107 z"
       style="fill:#008000;stroke:none;stroke-width:1.28366244;stroke-linecap:square;stroke-linejoin:miter;stroke-miterlimit:4;stroke-dasharray:none;stroke-opacity:1;paint-order:markers fill stroke" />
  </g>
  <g
     transform="translate(-8.2314953,-101.19908)"
     id="layer2">
    <g
       transform="rotate(44.156362,91.477681,108.82644)"
       id="layer1">
      <g
         id="flowRoot10"
         style="font-style:normal;font-weight:normal;font-size:40px;line-height:25px;font-family:sans-serif;letter-spacing:0px;word-spacing:0px;fill:#000000;fill-opacity:1;stroke:none"
         transform="matrix(0.41417544,-0.40181328,0.3967977,0.41941069,-132.61286,88.79205)"
         aria-label="North&lt;/script&gt;(   )">
        <path
           id="path4768"
           style=""
           d="m 123.92578,304.82227 h 5.3125 l 12.92969,24.39453 v -24.39453 h 3.82812 v 29.16015 h -5.3125 l -12.92968,-24.39453 v 24.39453 h -3.82813 z" />
        <path
           id="path4770"
           style=""
           d="m 162.16797,314.62695 q -2.89063,0 -4.57031,2.26563 -1.67969,2.24609 -1.67969,6.17187 0,3.92578 1.66015,6.19141 1.67969,2.24609 4.58985,2.24609 2.87109,0 4.55078,-2.26562 1.67969,-2.26563 1.67969,-6.17188 0,-3.88672 -1.67969,-6.15234 -1.67969,-2.28516 -4.55078,-2.28516 z m 0,-3.04687 q 4.6875,0 7.36328,3.04687 2.67578,3.04688 2.67578,8.4375 0,5.3711 -2.67578,8.4375 -2.67578,3.04688 -7.36328,3.04688 -4.70703,0 -7.38281,-3.04688 -2.65625,-3.0664 -2.65625,-8.4375 0,-5.39062 2.65625,-8.4375 2.67578,-3.04687 7.38281,-3.04687 z" />
        <path
           id="path4772"
           style=""
           d="m 190.82031,315.4668 q -0.60547,-0.35157 -1.32812,-0.50782 -0.70313,-0.17578 -1.5625,-0.17578 -3.04688,0 -4.6875,1.99219 -1.6211,1.97266 -1.6211,5.68359 v 11.52344 h -3.61328 v -21.875 h 3.61328 v 3.39844 q 1.13282,-1.99219 2.94922,-2.94922 1.81641,-0.97656 4.41406,-0.97656 0.3711,0 0.82032,0.0586 0.44922,0.0391 0.99609,0.13672 z" />
        <path
           id="path4774"
           style=""
           d="m 198.18359,305.89648 v 6.21094 h 7.40235 v 2.79297 h -7.40235 v 11.875 q 0,2.67578 0.72266,3.4375 0.74219,0.76172 2.98828,0.76172 h 3.69141 v 3.00781 h -3.69141 q -4.16016,0 -5.74219,-1.54297 -1.58203,-1.5625 -1.58203,-5.66406 v -11.875 h -2.63672 v -2.79297 h 2.63672 v -6.21094 z" />
        <path
           id="path4776"
           style=""
           d="m 228.51562,320.7793 v 13.20312 h -3.59375 v -13.08594 q 0,-3.10546 -1.21093,-4.64843 -1.21094,-1.54297 -3.63282,-1.54297 -2.91015,0 -4.58984,1.85547 -1.67969,1.85547 -1.67969,5.05859 v 12.36328 h -3.61328 V 303.5918 h 3.61328 v 11.91406 q 1.28907,-1.97266 3.02735,-2.94922 1.75781,-0.97656 4.04297,-0.97656 3.76953,0 5.70312,2.34375 1.93359,2.32422 1.93359,6.85547 z" />
        <path
           id="path4778"
           style=""
           d="m 261.23047,314.29492 -20.15625,7.16797 20.15625,7.12891 v 3.55468 l -25.03906,-9.08203 v -3.24218 l 25.03906,-9.08204 z" />
        <path
           id="path4780"
           style=""
           d="m 275.625,304.82227 h 3.32031 l -10.15625,32.87109 h -3.32031 z" />
        <path
           id="path4782"
           style="fill:#008000"
           d="m 296.69922,312.75195 v 3.39844 q -1.52344,-0.78125 -3.16406,-1.17187 -1.64063,-0.39063 -3.39844,-0.39063 -2.67578,0 -4.02344,0.82031 -1.32812,0.82032 -1.32812,2.46094 0,1.25 0.95703,1.97266 0.95703,0.70312 3.84765,1.34765 l 1.23047,0.27344 q 3.82813,0.82031 5.42969,2.32422 1.62109,1.48437 1.62109,4.16016 0,3.04687 -2.42187,4.82421 -2.40235,1.77735 -6.6211,1.77735 -1.75781,0 -3.67187,-0.35156 -1.89453,-0.33204 -4.00391,-1.01563 v -3.71094 q 1.99219,1.03516 3.92578,1.5625 1.9336,0.50782 3.82813,0.50782 2.53906,0 3.90625,-0.85938 1.36719,-0.87891 1.36719,-2.46094 0,-1.46484 -0.9961,-2.24609 -0.97656,-0.78125 -4.3164,-1.50391 l -1.25,-0.29297 q -3.33985,-0.70312 -4.82422,-2.14843 -1.48438,-1.46485 -1.48438,-4.00391 0,-3.08594 2.1875,-4.76562 2.1875,-1.67969 6.21094,-1.67969 1.99219,0 3.75,0.29297 1.75781,0.29297 3.24219,0.8789 z" />
        <path
           id="path4784"
           style="fill:#008000"
           d="m 319.35547,312.94727 v 3.35937 q -1.52344,-0.83984 -3.06641,-1.25 -1.52344,-0.42969 -3.08594,-0.42969 -3.49609,0 -5.42968,2.22657 -1.9336,2.20703 -1.9336,6.21093 0,4.00391 1.9336,6.23047 1.93359,2.20703 5.42968,2.20703 1.5625,0 3.08594,-0.41015 1.54297,-0.42969 3.06641,-1.26953 v 3.32031 q -1.50391,0.70312 -3.125,1.05469 -1.60156,0.35156 -3.41797,0.35156 -4.94141,0 -7.85156,-3.10547 -2.91016,-3.10547 -2.91016,-8.37891 0,-5.35156 2.92969,-8.41797 2.94922,-3.0664 8.0664,-3.0664 1.66016,0 3.24219,0.35156 1.58203,0.33203 3.06641,1.01563 z" />
        <path
           id="path4786"
           style="fill:#008000"
           d="m 338.32031,315.4668 q -0.60547,-0.35157 -1.32812,-0.50782 -0.70313,-0.17578 -1.5625,-0.17578 -3.04688,0 -4.6875,1.99219 -1.6211,1.97266 -1.6211,5.68359 v 11.52344 h -3.61328 v -21.875 h 3.61328 v 3.39844 q 1.13282,-1.99219 2.94922,-2.94922 1.81641,-0.97656 4.41406,-0.97656 0.3711,0 0.82032,0.0586 0.44922,0.0391 0.99609,0.13672 z" />
        <path
           id="path4788"
           style="fill:#008000"
           d="m 342.12891,312.10742 h 3.59375 v 21.875 h -3.59375 z m 0,-8.51562 h 3.59375 v 4.55078 h -3.59375 z" />
        <path
           id="path4790"
           style="fill:#008000"
           d="m 356.69922,330.70117 v 11.60156 h -3.61328 v -30.19531 h 3.61328 v 3.32031 q 1.13281,-1.95312 2.85156,-2.89062 1.73828,-0.95703 4.14063,-0.95703 3.98437,0 6.46484,3.16406 2.5,3.16406 2.5,8.32031 0,5.15625 -2.5,8.32032 -2.48047,3.16406 -6.46484,3.16406 -2.40235,0 -4.14063,-0.9375 -1.71875,-0.95703 -2.85156,-2.91016 z m 12.22656,-7.63672 q 0,-3.96484 -1.64062,-6.21093 -1.6211,-2.26563 -4.47266,-2.26563 -2.85156,0 -4.49219,2.26563 -1.62109,2.24609 -1.62109,6.21093 0,3.96485 1.62109,6.23047 1.64063,2.2461 4.49219,2.2461 2.85156,0 4.47266,-2.2461 1.64062,-2.26562 1.64062,-6.23047 z" />
        <path
           id="path4792"
           style="fill:#008000"
           d="m 382.16797,305.89648 v 6.21094 h 7.40234 v 2.79297 h -7.40234 v 11.875 q 0,2.67578 0.72265,3.4375 0.74219,0.76172 2.98829,0.76172 h 3.6914 v 3.00781 h -3.6914 q -4.16016,0 -5.74219,-1.54297 -1.58203,-1.5625 -1.58203,-5.66406 v -11.875 h -2.63672 v -2.79297 h 2.63672 v -6.21094 z" />
        <path
           id="path4794"
           style=""
           d="m 394.78516,314.29492 v -3.55469 l 25.03906,9.08204 v 3.24218 l -25.03906,9.08203 v -3.55468 l 20.11718,-7.12891 z" />
        <path
           id="path4796"
           style=""
           d="m 436.46484,303.63086 q -2.61718,4.49219 -3.88672,8.88672 -1.26953,4.39453 -1.26953,8.90625 0,4.51172 1.26953,8.94531 1.28907,4.41406 3.88672,8.88672 h -3.125 q -2.92968,-4.58984 -4.39453,-9.02344 -1.44531,-4.43359 -1.44531,-8.80859 0,-4.35547 1.44531,-8.76953 1.44531,-4.41407 4.39453,-9.02344 z" />
        <path
           id="path4798"
           style=""
           d="m 481.09375,303.63086 h 3.125 q 2.92969,4.60937 4.375,9.02344 1.46484,4.41406 1.46484,8.76953 0,4.375 -1.46484,8.80859 -1.44531,4.4336 -4.375,9.02344 h -3.125 q 2.59766,-4.47266 3.86719,-8.88672 1.28906,-4.43359 1.28906,-8.94531 0,-4.51172 -1.28906,-8.90625 -1.26953,-4.39453 -3.86719,-8.88672 z" />
      </g>
    </g>
    <path
       id="path4642"
       d="m 208.80882,143.04214 -18.21686,-9.49474 17.33112,-11.0289 z"
       style="fill:#ffffff;stroke:none;stroke-width:4.24399996;stroke-linecap:square;stroke-linejoin:miter;stroke-miterlimit:4;stroke-dasharray:none;stroke-opacity:1;paint-order:markers fill stroke"
       transform="matrix(0.60084144,0,0,0.57922231,88.104049,43.140453)" />
    <path
       id="path4642-7"
       d="m 208.80882,143.04214 -18.21686,-9.49474 17.33112,-11.0289 z"
       style="fill:#008000;stroke:#ffffff;stroke-width:1.96028531;stroke-linecap:square;stroke-linejoin:miter;stroke-miterlimit:4;stroke-dasharray:none;stroke-opacity:1;paint-order:markers fill stroke"
       transform="matrix(-0.55304412,0.005672,-0.00562038,-0.51544605,317.98525,196.00745)" />
  </g>
</svg>
